# xmcd
# 
# Track frame offsets:
#     150
#     15213
#     26391
#     44799
#     63184
#     75402
#     88816
#     100248
#     115461
#     127808
#     138839
#     153278
#     175093
#     187224
#     202313
#     212975
#     227724
#     246613
# 
# Disc length: 3464
# 
# Revision: 4
# Processed by: cddbd v1.5.2PL0 Copyright (c) Steve Scherf et al.
# Submitted via: fre:ac v1.0.17
# 
DISCID=f90d8612
DTITLE=Various Artist - 50 years of Country - Disc 6 - 1980 - 1988
DYEAR=2000
DGENRE=Country
TTITLE0=Bellamy Brothers - Dancin' Cowboys
TTITLE1=Diane Pfeifer - Wishful Drinkin'
TTITLE2=Juice Newton - The Sweetest Thing (I've Ever Known)
TTITLE3=Johnny Lee and Friends - Cherokee Fiddle
TTITLE4=The Whites - I Wonder Who's Holding My Baby Tonight
TTITLE5=Mel McDaniel - Baby's Got Her Blue Jeans On
TTITLE6=Eddie Rabbitt - B-B-B-Burning Up With Love
TTITLE7=The Judds - Have Mercy
TTITLE8=Sawyer Brown - Step That Step
TTITLE9=Hank Williams Jr, McEntire and Nelson - Mind Your Own Business
TTITLE10=Tanya Tucker - Just Another Love
TTITLE11=Dan Seals - Everything That Glitters (Is Not Gold)
TTITLE12=Hank Williams Jr. - Born To Boogie
TTITLE13=New Grass Revival - Unconditional Love
TTITLE14=Ronnie McDowell and Conway Twitty - It's Only Make Believe
TTITLE15=T. Graham Brown - Darlene
TTITLE16=The Desert Rose Band - I Still Believe In You
TTITLE17=Sweethearts Of The Rodeo - Blue To The Bone
EXTD=YEAR: 2000
EXTT0=1980
EXTT1=1980
EXTT2=1981
EXTT3=1982
EXTT4=1983
EXTT5=1984
EXTT6=1984
EXTT7=1985
EXTT8=1985
EXTT9=1986
EXTT10=1986
EXTT11=1987
EXTT12=1987
EXTT13=1987
EXTT14=1987
EXTT15=1988
EXTT16=1988
EXTT17=1988
PLAYORDER=
